# xmcd CD database file
#
# Track frame offsets:
#	150
#	12510
#	27725
#	41040
#	54687
#	74852
#	90472
#	107090
#	120185
#	132377
#	148572
#	163352
#	175990
#	186735
#	199192
#	214792
#	228360
#
# Disc length: 3168 seconds
#
# Revision: 0
# Processed by: cddbd v1.5.2PL0 Copyright (c) Steve Scherf et al.
# Submitted via: CDex 1.70beta2
#
DISCID=0b0c5e11
DTITLE=Various Artist - Trampské nebe 2
DYEAR=1900
DGENRE=Country
TTITLE0=Česačů bavlny bál
TTITLE1=Proč jsem mrtev
TTITLE2=Má dáti, dal
TTITLE3=Truchlivý bůh
TTITLE4=Já byl blázen
TTITLE5=Nezaprší
TTITLE6=Hej, člověče boží
TTITLE7=Tohle se nedá vydržet
TTITLE8=Kamion
TTITLE9=Tvůj dlouhý klíč je z mýho zápraží
TTITLE10=Tenkrát o Vánocích
TTITLE11=Za tohou koňmo
TTITLE12=Nech bejt chlapa, co je blázen do koní
TTITLE13=jipija jou
TTITLE14=Žába
TTITLE15=Písek
TTITLE16=Co nevidět se sejdem
EXTD=
EXTT0=
EXTT1=
EXTT2=
EXTT3=
EXTT4=
EXTT5=
EXTT6=
EXTT7=
EXTT8=
EXTT9=
EXTT10=
EXTT11=
EXTT12=
EXTT13=
EXTT14=
EXTT15=
EXTT16=
PLAYORDER=
